<?xml version="1.0" standalone="no"?>
<!DOCTYPE svg PUBLIC "-//W3C//DTD SVG 20010904//EN"
 "http://www.w3.org/TR/2001/REC-SVG-20010904/DTD/svg10.dtd">
<svg version="1.0" xmlns="http://www.w3.org/2000/svg"
 width="600.000000pt" height="600.000000pt" viewBox="0 0 600.000000 600.000000"
 preserveAspectRatio="xMidYMid meet">
<metadata>
Created by potrace 1.11, written by Peter Selinger 2001-2013
</metadata>
<g transform="translate(0.000000,600.000000) scale(0.100000,-0.100000)"
fill="#000000" stroke="none">
<path d="M2769 5946 c-2 -2 -40 -7 -83 -11 -43 -4 -88 -9 -100 -11 -12 -2 -41
-7 -66 -10 -25 -3 -52 -7 -60 -9 -8 -2 -31 -7 -50 -10 -238 -40 -596 -172
-856 -317 -790 -438 -1349 -1242 -1479 -2128 -3 -19 -8 -44 -10 -55 -31 -144
-24 -667 10 -847 3 -12 7 -40 10 -63 21 -143 105 -431 176 -603 47 -111 151
-323 180 -363 10 -15 19 -30 19 -33 0 -10 117 -183 184 -271 307 -405 726
-729 1207 -933 82 -35 253 -96 299 -107 8 -2 47 -13 85 -23 141 -39 201 -51
395 -77 183 -25 534 -25 730 0 40 6 81 12 185 30 17 3 86 19 155 36 645 155
1247 553 1646 1089 65 87 102 143 191 285 48 77 177 348 218 458 88 240 150
516 173 767 14 156 7 523 -12 640 -3 14 -7 43 -10 65 -36 277 -149 624 -296
910 -143 279 -315 513 -550 745 -227 224 -482 406 -764 545 -297 145 -565 228
-906 280 -19 3 -51 8 -70 11 -41 6 -545 16 -551 10z m576 -411 c297 -46 547
-124 790 -247 549 -278 986 -748 1218 -1308 62 -151 123 -353 147 -485 5 -33
12 -71 15 -85 37 -206 40 -552 5 -775 -25 -160 -22 -145 -40 -220 -19 -76
-107 -349 -131 -402 -186 -423 -451 -765 -799 -1034 -89 -69 -234 -169 -246
-169 -3 0 -18 -9 -33 -19 -33 -24 -203 -109 -291 -146 -127 -54 -371 -130
-485 -151 -189 -35 -320 -47 -505 -47 -209 0 -368 17 -530 55 -25 6 -54 12
-66 13 -21 3 -159 43 -239 70 -119 39 -328 135 -425 194 -19 11 -42 24 -50 28
-8 3 -54 32 -101 64 -434 290 -794 734 -968 1194 -13 33 -27 69 -31 80 -26 59
-84 278 -105 395 -3 14 -7 36 -9 50 -36 188 -41 559 -10 760 47 310 120 540
256 812 53 106 211 355 265 418 11 14 40 48 63 75 67 80 208 221 295 295 87
73 272 210 285 210 5 0 15 6 22 13 23 23 194 114 333 177 132 60 400 142 537
165 18 3 58 10 88 15 30 6 91 13 135 16 44 4 82 8 84 10 11 10 436 -7 526 -21z"/>
<path d="M2619 4329 c-5 -3 -9 -154 -9 -340 1 -183 1 -396 0 -471 l0 -138
-475 0 -475 0 -1 -140 c0 -77 0 -196 0 -265 0 -69 0 -176 0 -238 l1 -112 475
0 475 0 0 -65 c1 -36 1 -251 1 -477 l-1 -413 379 0 380 0 0 471 c0 300 3 474
9 478 6 3 220 6 476 6 l466 0 0 40 c1 82 1 632 1 673 l-1 42 -475 0 -475 0 -1
53 c0 28 -1 243 -2 477 l-2 424 -368 1 c-203 0 -373 -2 -378 -6z"/>
</g>
</svg>
